#!OML:ASF H:\Punching\Project 1\Capture day 1\Session 1\female.ASF
:FULLY-SPECIFIED
:DEGREES
147
root 0.922391 15.6833 -4.77079 11.6602 -9.20643 0.808803
lowerback -4.02997 -0.613071 -2.14602
upperback -6.43056 -0.801656 0.468175
thorax -4.3492 -0.29992 1.68417
lowerneck -16.7074 0.381648 6.58115
upperneck 37.9913 -0.97338 -2.505
head 16.4114 0.149214 -2.47112
rclavicle -1.11319e-014 8.05078e-015
rhumerus -36.8832 -7.93997 -74.5522
rradius 35.1172
rwrist 2.94311
rhand -10.7646 -5.2966
rfingers 7.12502
rthumb 15.2473 -34.7147
lclavicle -1.11319e-014 8.05078e-015
lhumerus -47.1304 6.88903 76.4096
lradius 33.2459
lwrist -19.7493
lhand -4.01613 12.5801
lfingers 7.12502
lthumb 21.7385 41.3794
rfemur -26.9183 5.04921 16.3068
rtibia 41.8864
rfoot -22.3622 -8.6003
rtoes -15.1429
lfemur -13.2698 -4.43316 -25.3357
ltibia 20.2614
lfoot -18.8452 17.3998
ltoes 6.02308
148
root 0.923984 15.682 -4.75533 11.5551 -9.58004 0.918858
lowerback -3.84683 -0.620762 -2.28515
upperback -6.366 -0.81613 0.422416
thorax -4.38324 -0.302259 1.71642
lowerneck -16.7692 0.415455 6.65652
upperneck 38.0294 -0.973913 -2.47161
head 16.448 0.164338 -2.4723
rclavicle -1.71887e-014 1.799e-014
rhumerus -36.8568 -7.94046 -74.6692
rradius 35.2024
rwrist 2.90778
rhand -10.8281 -5.2421
rfingers 7.12502
rthumb 15.1861 -34.6648
lclavicle -1.71887e-014 1.799e-014
lhumerus -47.054 6.86598 76.2812
lradius 33.1789
lwrist -19.8925
lhand -3.9691 12.5997
lfingers 7.12502
lthumb 21.7836 41.3938
rfemur -27.764 4.95244 16.2013
rtibia 43.4137
rfoot -21.6864 -8.22146
rtoes -14.5789
lfemur -12.8925 -4.32197 -25.5279
ltibia 19.8854
lfoot -18.7846 17.6175
ltoes 6.0412
149
root 0.924752 15.6806 -4.73835 11.4577 -9.95165 1.01426
lowerback -3.67934 -0.628419 -2.40064
upperback -6.3058 -0.83081 0.37924
thorax -4.41327 -0.305732 1.738
lowerneck -16.8155 0.455042 6.73031
upperneck 38.0626 -0.963719 -2.43811
head 16.479 0.183537 -2.47082
rclavicle -1.51138e-014 -9.93923e-016
rhumerus -36.8548 -7.938 -74.7734
rradius 35.2834
rwrist 2.86597
rhand -10.88 -5.17284
rfingers 7.12502
rthumb 15.136 -34.5993
lclavicle -1.51138e-014 -9.93923e-016
lhumerus -46.9787 6.85964 76.1391
lradius 33.1072
lwrist -20.054
lhand -3.94228 12.6084
lfingers 7.12502
lthumb 21.8094 41.3996
rfemur -28.6303 4.83677 16.1251
rtibia 44.9293
rfoot -20.958 -7.83473
rtoes -13.8712
lfemur -12.5198 -4.2253 -25.7012
ltibia 19.5183
lfoot -18.7322 17.8519
ltoes 6.05727
150
root 0.924732 15.6793 -4.71959 11.3705 -10.3186 1.09581
lowerback -3.52986 -0.639893 -2.49495
upperback -6.25266 -0.850506 0.342745
thorax -4.44044 -0.312493 1.75453
lowerneck -16.8427 0.50272 6.79955
upperneck 38.0919 -0.936899 -2.40694
head 16.5044 0.208447 -2.46614
rclavicle -9.36462e-015 -7.45443e-015
rhumerus -36.8754 -7.92071 -74.863
rradius 35.3557
rwrist 2.79993
rhand -10.9091 -5.17911
rfingers 7.12502
rthumb 15.1081 -34.6077
lclavicle -9.36462e-015 -7.45443e-015
lhumerus -46.9096 6.87739 75.9869
lradius 33.0282
lwrist -20.2381
lhand -3.93084 12.6121
lfingers 7.12502
lthumb 21.8204 41.4019
rfemur -29.5096 4.69599 16.0778
rtibia 46.4096
rfoot -20.2126 -7.45814
rtoes -13.1181
lfemur -12.1547 -4.14078 -25.8571
ltibia 19.1623
lfoot -18.6898 18.0986
ltoes 6.06626
151
root 0.923834 15.6782 -4.69897 11.297 -10.6819 1.15771
lowerback -3.40164 -0.65358 -2.56385
upperback -6.20701 -0.872798 0.314695
thorax -4.46349 -0.321489 1.76545
lowerneck -16.846 0.557269 6.86145
upperneck 38.1121 -0.894798 -2.37517
head 16.5201 0.238352 -2.4565
rclavicle -7.87684e-015 -5.41688e-015
rhumerus -36.9183 -7.88645 -74.9378
rradius 35.4148
rwrist 2.70133
rhand -10.9417 -5.2352
rfingers 7.12502
rthumb 15.0767 -34.6662
lclavicle -7.87684e-015 -5.41688e-015
lhumerus -46.852 6.91073 75.8332
lradius 32.9525
lwrist -20.4356
lhand -3.94521 12.6108
lfingers 7.12502
lthumb 21.8066 41.4022
rfemur -30.3964 4.5354 16.0658
rtibia 47.8306
rfoot -19.496 -7.12223
rtoes -12.3688
lfemur -11.7979 -4.06589 -25.9894
ltibia 18.8134
lfoot -18.6542 18.3564
ltoes 6.06906
152
root 0.922001 15.6776 -4.67674 11.2408 -11.0329 1.20457
lowerback -3.29756 -0.668152 -2.61229
upperback -6.16808 -0.895811 0.289989
thorax -4.48008 -0.331722 1.76816
lowerneck -16.8471 0.61871 6.92239
upperneck 38.1354 -0.843055 -2.33952
head 16.5377 0.272808 -2.44321
rclavicle -3.57191e-016 -7.70291e-015
rhumerus -36.9796 -7.85557 -74.9948
rradius 35.4508
rwrist 2.58178
rhand -10.9956 -5.29824
rfingers 7.12502
rthumb 15.0247 -34.7331
lclavicle -3.57191e-016 -7.70291e-015
lhumerus -46.7938 6.94141 75.6836
lradius 32.8776
lwrist -20.6385
lhand -3.97024 12.618
lfingers 7.12502
lthumb 21.7825 41.4122
rfemur -31.2844 4.36385 16.0812
rtibia 49.1674
rfoot -18.8532 -6.85083
rtoes -11.6333
lfemur -11.4526 -4.00043 -26.1016
ltibia 18.4652
lfoot -18.6304 18.6155
ltoes 6.08895
153
root 0.919157 15.6775 -4.65246 11.1974 -11.3737 1.23295
lowerback -3.21038 -0.683994 -2.63816
upperback -6.13139 -0.919996 0.271294
thorax -4.48955 -0.343486 1.76431
lowerneck -16.8489 0.684536 6.98959
upperneck 38.1537 -0.783295 -2.31217
head 16.5534 0.310205 -2.43307
rclavicle 1.11133e-014 -4.12478e-015
rhumerus -37.0535 -7.82304 -75.0351
rradius 35.4653
rwrist 2.44647
rhand -11.0701 -5.3607
rfingers 7.12502
rthumb 14.9529 -34.8009
lclavicle 1.11133e-014 -4.12478e-015
lhumerus -46.729 6.97239 75.5417
lradius 32.8048
lwrist -20.8389
lhand -4.02273 12.6107
lfingers 7.12502
lthumb 21.7321 41.4108
rfemur -32.1599 4.18843 16.1239
rtibia 50.3963
rfoot -18.2991 -6.65085
rtoes -10.9403
lfemur -11.1062 -3.95085 -26.1912
ltibia 18.111
lfoot -18.6144 18.887
ltoes 6.11797
154
root 0.915196 15.6779 -4.62641 11.1687 -11.7029 1.24997
lowerback -3.13757 -0.70098 -2.651
upperback -6.10018 -0.945268 0.257542
thorax -4.49667 -0.35624 1.75817
lowerneck -16.8523 0.754788 7.0637
upperneck 38.1698 -0.715174 -2.29465
head 16.5688 0.350661 -2.4269
rclavicle -2.14719e-014 -1.13307e-014
rhumerus -37.1392 -7.79882 -75.0525
rradius 35.4543
rwrist 2.33163
rhand -11.1601 -5.41562
rfingers 7.12502
rthumb 14.8663 -34.8623
lclavicle -2.14719e-014 -1.13307e-014
lhumerus -46.6599 6.99422 75.4155
lradius 32.7365
lwrist -21.0147
lhand -4.08503 12.6109
lfingers 7.12502
lthumb 21.6723 41.4179
rfemur -33.0241 4.02065 16.1796
rtibia 51.4961
rfoot -17.8299 -6.52339
rtoes -10.2672
lfemur -10.7595 -3.91674 -26.2646
ltibia 17.7417
lfoot -18.6022 19.1656
ltoes 6.17365
155
root 0.910054 15.6785 -4.59835 11.1499 -12.0192 1.26031
lowerback -3.07843 -0.720299 -2.65511
upperback -6.07215 -0.973185 0.247774
thorax -4.49931 -0.370643 1.75116
lowerneck -16.853 0.827344 7.14494
upperneck 38.1803 -0.640736 -2.28906
head 16.5809 0.392934 -2.42591
rclavicle -1.12872e-014 -8.59744e-015
rhumerus -37.2375 -7.78539 -75.0434
rradius 35.4178
rwrist 2.25585
rhand -11.2591 -5.40887
rfingers 7.12502
rthumb 14.7709 -34.8625
lclavicle -1.12872e-014 -8.59744e-015
lhumerus -46.5859 7.01022 75.303
lradius 32.6732
lwrist -21.165
lhand -4.14755 12.6088
lfingers 7.12502
lthumb 21.6123 41.4227
rfemur -33.8683 3.86351 16.2391
rtibia 52.4477
rfoot -17.4228 -6.46428
rtoes -9.60924
lfemur -10.4043 -3.90099 -26.3275
ltibia 17.3532
lfoot -18.586 19.4545
ltoes 6.23272
156
root 0.903686 15.6794 -4.56837 11.1386 -12.3222 1.26955
lowerback -3.02309 -0.743834 -2.65996
upperback -6.04962 -1.00653 0.243804
thorax -4.50524 -0.387478 1.75063
lowerneck -16.8544 0.902967 7.23294
upperneck 38.1883 -0.557672 -2.29891
head 16.5924 0.43751 -2.43133
rclavicle 4.28909e-014 -6.95746e-016
rhumerus -37.3455 -7.78726 -75.0001
rradius 35.348
rwrist 2.22186
rhand -11.333 -5.37492
rfingers 7.12502
rthumb 14.6997 -34.8338
lclavicle 4.28909e-014 -6.95746e-016
lhumerus -46.5089 7.02224 75.2087
lradius 32.6133
lwrist -21.282
lhand -4.20947 12.6084
lfingers 7.12502
lthumb 21.5528 41.4292
rfemur -34.6873 3.72224 16.2915
rtibia 53.2345
rfoot -17.0526 -6.45626
rtoes -8.95928
lfemur -10.0383 -3.90163 -26.3857
ltibia 16.9409
lfoot -18.5553 19.7521
ltoes 6.27886
157
root 0.896016 15.6803 -4.53695 11.1373 -12.6078 1.28272
lowerback -2.97336 -0.770131 -2.6677
upperback -6.03708 -1.04358 0.239924
thorax -4.51831 -0.40585 1.75191
lowerneck -16.8571 0.981158 7.3282
upperneck 38.2013 -0.469013 -2.31949
head 16.6072 0.484127 -2.44191
rclavicle 2.59181e-014 1.19271e-015
rhumerus -37.4642 -7.84008 -74.9097
rradius 35.2337
rwrist 2.28032
rhand -11.3639 -5.25575
rfingers 7.12502
rthumb 14.6699 -34.7168
lclavicle 2.59181e-014 1.19271e-015
lhumerus -46.4322 7.02148 75.1294
lradius 32.558
lwrist -21.3705
lhand -4.26482 12.6035
lfingers 7.12502
lthumb 21.4996 41.4303
rfemur -35.4824 3.5931 16.3289
rtibia 53.8446
rfoot -16.697 -6.48446
rtoes -8.32447
lfemur -9.66559 -3.91445 -26.4429
ltibia 16.5028
lfoot -18.5074 20.046
ltoes 6.30453
158
root 0.887075 15.6813 -4.50407 11.1444 -12.8741 1.29977
lowerback -2.9282 -0.800723 -2.68088
upperback -6.03349 -1.08635 0.238204
thorax -4.53784 -0.426609 1.75856
lowerneck -16.8671 1.06348 7.42811
upperneck 38.2241 -0.373654 -2.34702
head 16.6298 0.533561 -2.45549
rclavicle 2.64042e-014 -3.13086e-015
rhumerus -37.5873 -7.94587 -74.7719
rradius 35.0702
rwrist 2.41855
rhand -11.3656 -5.13104
rfingers 7.12502
rthumb 14.6683 -34.5922
lclavicle 2.64042e-014 -3.13086e-015
lhumerus -46.3552 7.01183 75.0657
lradius 32.5056
lwrist -21.4341
lhand -4.31638 12.5849
lfingers 7.12502
lthumb 21.4501 41.4174
rfemur -36.245 3.47448 16.35
rtibia 54.2682
rfoot -16.3493 -6.53641
rtoes -7.75354
lfemur -9.2836 -3.93363 -26.4992
ltibia 16.0352
lfoot -18.4409 20.3309
ltoes 6.30058
